<svg xmlns="http://www.w3.org/2000/svg" height="18" viewBox="0 0 18 18" width="18">
  <defs>
    <style>
      .fill {
        fill: #464646;
      }
    </style>
  </defs>
  <title>S ReplyAll 18 N</title>
  <rect id="Canvas" fill="#ff13dc" opacity="0" width="18" height="18" /><path class="fill" d="M11.0525,3H11V1.5a.3665.3665,0,0,0-.36549-.36751h-.004a.359.359,0,0,0-.2565.108L6.9525,4.683a.36751.36751,0,0,0,0,.492L10.374,8.892A.359.359,0,0,0,10.6305,9,.3665.3665,0,0,0,11,8.63651V7a6.21449,6.21449,0,0,1,6.0895,2.3925.2275.2275,0,0,0,.4105-.136C17.5,8.25,16.3895,3,11.0525,3Z" />
  <path class="fill" d="M6.135,9.25H6V7.3675A.3665.3665,0,0,0,5.63451,7h-.004a.359.359,0,0,0-.2565.108L1.0945,11.254a.36751.36751,0,0,0,0,.492L5.374,15.892A.359.359,0,0,0,5.6305,16,.3665.3665,0,0,0,6,15.63651v-1.778a8.31424,8.31424,0,0,1,7.5,3.1895.2775.2775,0,0,0,.5-.166C14,15.6565,12.645,9.25,6.135,9.25Z" />
</svg>