<svg xmlns="http://www.w3.org/2000/svg" height="18" viewBox="0 0 18 18" width="18">
  <defs>
    <style>
      .fill {
        fill: #464646;
      }
    </style>
  </defs>
  <title>S UserGroup 18 N</title>
  <rect id="Canvas" fill="#ff13dc" opacity="0" width="18" height="18" /><path class="fill" d="M13.461,10.238c-.7205-.0625-.732-.642-.732-1.3645A6.57549,6.57549,0,0,0,14.274,4.955C14.274,2.582,12.924,1,10.9795,1A3.15,3.15,0,0,0,9.64,1.287a5.34543,5.34543,0,0,1,2.62,4.95,7.80009,7.80009,0,0,1-1.21,3.9745.43051.43051,0,0,0,.237.644A6.744,6.744,0,0,1,15.8895,15H17.518a.4355.4355,0,0,0,.44022-.43072q.00016-.01515-.00072-.03028C17.668,11.3945,14.446,10.324,13.461,10.238Z" />
  <path class="fill" d="M14.4865,17a.46551.46551,0,0,0,.47134-.45959q.00021-.01721-.00084-.03441c-.31-3.367-3.7625-4.514-4.818-4.606-.772-.067-.7845-.6885-.7845-1.4625a7.04646,7.04646,0,0,0,1.6555-4.2C11.01,3.6955,9.563,2,7.4795,2S3.95,3.6955,3.95,6.2385a7.04646,7.04646,0,0,0,1.6555,4.2c0,.774-.0125,1.3955-.7845,1.4625C3.7645,11.992.312,13.139,0,16.506a.4655.4655,0,0,0,.43606.49319Q.45426,17.00032.4725,17Z" />
</svg>