<svg xmlns="http://www.w3.org/2000/svg" height="18" viewBox="0 0 18 18" width="18">
  <defs>
    <style>
      .fill {
        fill: #464646;
      }
    </style>
  </defs>
  <title>S EmailExclude 18 N</title>
  <rect id="Canvas" fill="#ff13dc" opacity="0" width="18" height="18" /><path class="fill" d="M13.5,9.05a4.45,4.45,0,1,0,4.45,4.45A4.45,4.45,0,0,0,13.5,9.05ZM10,13.5a3.46708,3.46708,0,0,1,.7375-2.126l4.8885,4.8885A3.483,3.483,0,0,1,10,13.5Zm6.2625,2.126L11.374,10.7375a3.483,3.483,0,0,1,4.8885,4.8885Z" />
  <path class="fill" d="M9,9.094l9-6.7615v-.75A.5735.5735,0,0,0,17.4375,1H.5625A.57351.57351,0,0,0,0,1.5835V2.318Z" />
  <polygon class="fill" points="5.582 7.969 0 3.756 0 5.667 0 12.097 5.582 7.969" />
  <path class="fill" d="M7.35,13.5a6.12194,6.12194,0,0,1,1.046-3.4315c-.0125-.009-.0285-.012-.041-.0215L6.541,8.6875,0,13.534v.8825A.57351.57351,0,0,0,.5625,15H7.542A6.13641,6.13641,0,0,1,7.35,13.5Z" />
  <path class="fill" d="M13.5,7.35A6.12653,6.12653,0,0,1,18,9.3175V3.7705l-4.7885,3.594C13.308,7.36,13.4025,7.35,13.5,7.35Z" />
</svg>